<?xml version="1.0" encoding="UTF-8"?>
<!DOCTYPE svg PUBLIC "-//W3C//DTD SVG 1.1//EN" "http://www.w3.org/Graphics/SVG/1.1/DTD/svg11.dtd">
<svg xmlns="http://www.w3.org/2000/svg" version="1.1" width="512px" height="512px" style="shape-rendering:geometricPrecision; text-rendering:geometricPrecision; image-rendering:optimizeQuality; fill-rule:evenodd; clip-rule:evenodd" xmlns:xlink="http://www.w3.org/1999/xlink">
<g><path style="opacity:1" fill="#4caf50" d="M 47.5,-0.5 C 186.167,-0.5 324.833,-0.5 463.5,-0.5C 489.14,5.80667 505.14,21.8067 511.5,47.5C 511.5,186.167 511.5,324.833 511.5,463.5C 505.14,489.193 489.14,505.193 463.5,511.5C 324.833,511.5 186.167,511.5 47.5,511.5C 21.8067,505.14 5.80667,489.14 -0.5,463.5C -0.5,324.833 -0.5,186.167 -0.5,47.5C 5.80667,21.86 21.8067,5.85998 47.5,-0.5 Z"/></g>
<g><path style="opacity:1" fill="#f9f9f9" d="M 365.5,164.5 C 383.331,164.164 391.831,172.83 391,190.5C 390.241,193.785 388.908,196.785 387,199.5C 339.5,247 292,294.5 244.5,342C 235.803,347.913 227.136,347.913 218.5,342C 194,317.5 169.5,293 145,268.5C 137.235,253.795 140.735,242.628 155.5,235C 162.215,233.752 168.548,234.752 174.5,238C 193.347,257.014 212.347,275.847 231.5,294.5C 273.986,252.514 316.32,210.347 358.5,168C 360.925,166.787 363.259,165.621 365.5,164.5 Z"/></g>
</svg>
