<?xml version="1.0" encoding="UTF-8"?>
<svg version="1.1" xmlns="http://www.w3.org/2000/svg" width="512" height="512">
<path d="M0 0 C1.45108658 0.00273422 1.45108658 0.00273422 2.93148804 0.00552368 C17.26440977 0.05095174 31.21023917 0.55983928 45.3125 3.3125 C46.65803955 3.55395752 46.65803955 3.55395752 48.03076172 3.80029297 C91.63561969 11.69055147 132.77240471 31.38014943 166.3125 60.3125 C167.05757813 60.94671875 167.80265625 61.5809375 168.5703125 62.234375 C182.07529833 74.04551515 194.74668743 86.79610228 205.3125 101.3125 C206.16899066 102.46244831 207.02576433 103.61218589 207.8828125 104.76171875 C213.9234414 112.95339526 219.28255071 121.46895078 224.3125 130.3125 C224.67698242 130.94430176 225.04146484 131.57610352 225.41699219 132.22705078 C238.59268166 155.24671301 247.27606895 180.76595449 252.625 206.6875 C252.77243652 207.39817627 252.91987305 208.10885254 253.07177734 208.84106445 C256.05713787 224.48358366 256.6873098 240.11919606 256.625 256 C256.62226578 257.45108658 256.62226578 257.45108658 256.61947632 258.93148804 C256.57404826 273.26440977 256.06516072 287.21023917 253.3125 301.3125 C253.15152832 302.20952637 252.99055664 303.10655273 252.82470703 304.03076172 C244.93444853 347.63561969 225.24485057 388.77240471 196.3125 422.3125 C195.67828125 423.05757813 195.0440625 423.80265625 194.390625 424.5703125 C182.57948485 438.07529833 169.82889772 450.74668743 155.3125 461.3125 C154.16255169 462.16899066 153.01281411 463.02576433 151.86328125 463.8828125 C143.67160474 469.9234414 135.15604922 475.28255071 126.3125 480.3125 C125.68069824 480.67698242 125.04889648 481.04146484 124.39794922 481.41699219 C101.37828699 494.59268166 75.85904551 503.27606895 49.9375 508.625 C49.22682373 508.77243652 48.51614746 508.91987305 47.78393555 509.07177734 C32.14141634 512.05713787 16.50580394 512.6873098 0.625 512.625 C-0.34239105 512.62317719 -1.3097821 512.62135437 -2.30648804 512.61947632 C-16.63940977 512.57404826 -30.58523917 512.06516072 -44.6875 509.3125 C-45.58452637 509.15152832 -46.48155273 508.99055664 -47.40576172 508.82470703 C-91.01061969 500.93444853 -132.14740471 481.24485057 -165.6875 452.3125 C-166.43257813 451.67828125 -167.17765625 451.0440625 -167.9453125 450.390625 C-181.45029833 438.57948485 -194.12168743 425.82889772 -204.6875 411.3125 C-205.54399066 410.16255169 -206.40076433 409.01281411 -207.2578125 407.86328125 C-213.2984414 399.67160474 -218.65755071 391.15604922 -223.6875 382.3125 C-224.05198242 381.68069824 -224.41646484 381.04889648 -224.79199219 380.39794922 C-237.96768166 357.37828699 -246.65106895 331.85904551 -252 305.9375 C-252.14743652 305.22682373 -252.29487305 304.51614746 -252.44677734 303.78393555 C-255.43213787 288.14141634 -256.0623098 272.50580394 -256 256.625 C-255.99817719 255.65760895 -255.99635437 254.6902179 -255.99447632 253.69351196 C-255.94904826 239.36059023 -255.44016072 225.41476083 -252.6875 211.3125 C-252.44604248 209.96696045 -252.44604248 209.96696045 -252.19970703 208.59423828 C-244.30944853 164.98938031 -224.61985057 123.85259529 -195.6875 90.3125 C-195.05328125 89.56742187 -194.4190625 88.82234375 -193.765625 88.0546875 C-181.95448485 74.54970167 -169.20389772 61.87831257 -154.6875 51.3125 C-153.53755169 50.45600934 -152.38781411 49.59923567 -151.23828125 48.7421875 C-143.04660474 42.7015586 -134.53104922 37.34244929 -125.6875 32.3125 C-125.05569824 31.94801758 -124.42389648 31.58353516 -123.77294922 31.20800781 C-100.75328699 18.03231834 -75.23404551 9.34893105 -49.3125 4 C-48.60182373 3.85256348 -47.89114746 3.70512695 -47.15893555 3.55322266 C-31.51641634 0.56786213 -15.88080394 -0.0623098 0 0 Z M-70.6875 99.3125 C-71.14636597 100.30709229 -71.14636597 100.30709229 -71.61450195 101.32177734 C-89.26547659 139.37111346 -113.21021523 174.39040012 -146.6875 200.3125 C-147.25388184 200.76061035 -147.82026367 201.2087207 -148.40380859 201.67041016 C-164.05183865 214.03072259 -182.10349655 226.47536721 -201.0625 233.1484375 C-202.98232679 234.25014526 -202.98232679 234.25014526 -203.27416992 236.95678711 C-209.61861479 288.46558493 -192.16173374 340.98453754 -161.01293945 381.68823242 C-127.19424476 424.89435689 -78.46257555 451.99628396 -24.30151367 459.6496582 C30.54884055 466.0183081 84.62276034 449.78108305 127.890625 415.9140625 C170.64682772 381.65259433 197.59906783 331.87522961 203.89794922 277.57714844 C204.61998778 270.7069133 204.70537273 263.8399492 204.6875 256.9375 C204.68762085 256.20970337 204.6877417 255.48190674 204.68786621 254.73205566 C204.6438223 235.91301496 202.4235803 217.19066044 196.3125 199.3125 C189.35446344 200.03469142 182.4903436 201.04610466 175.59375 202.20703125 C163.43972127 204.1925904 151.41388322 204.55361128 139.125 204.5625 C137.86319412 204.56351212 137.86319412 204.56351212 136.57589722 204.56454468 C109.17700047 204.52976254 82.21843255 200.4443715 56.3125 191.3125 C55.54325195 191.04630859 54.77400391 190.78011719 53.98144531 190.50585938 C26.34634197 180.83957372 1.01475917 166.79522933 -21.6875 148.3125 C-22.69296875 147.51070312 -23.6984375 146.70890625 -24.734375 145.8828125 C-39.26961508 134.0935475 -52.41930862 120.56231885 -63.703125 105.6484375 C-64.33734375 104.81570312 -64.9715625 103.98296875 -65.625 103.125 C-66.17027344 102.38894531 -66.71554688 101.65289062 -67.27734375 100.89453125 C-67.74269531 100.37246094 -68.20804688 99.85039063 -68.6875 99.3125 C-69.3475 99.3125 -70.0075 99.3125 -70.6875 99.3125 Z " fill="#000000" transform="translate(255.6875,-0.3125)"/>
<path d="M0 0 C6.38785246 5.66626172 10.62990358 12.85336955 11.4453125 21.38671875 C11.56382667 32.71667372 9.94123865 40.75085335 2.03125 49.1171875 C-5.5342144 56.02144262 -13.58915935 58.39593739 -23.765625 58.1796875 C-32.87749664 57.27989018 -39.70224325 53.49646829 -45.890625 46.87109375 C-46.38433594 46.34773438 -46.87804687 45.824375 -47.38671875 45.28515625 C-52.59421076 38.94963185 -54.26721411 30.42108141 -53.953125 22.37109375 C-52.61229028 12.59005733 -47.8054336 4.60099736 -40.1953125 -1.57421875 C-27.60648845 -10.06634073 -12.04448165 -8.56354103 0 0 Z " fill="#000000" transform="translate(353.890625,256.12890625)"/>
<path d="M0 0 C7.60629971 6.33340874 12.2427613 13.65162733 13.5625 23.5 C14.05855544 32.3545896 12.06899365 40.61994513 6.27734375 47.4453125 C5.73207031 48.02023437 5.18679687 48.59515625 4.625 49.1875 C3.85349609 50.01894531 3.85349609 50.01894531 3.06640625 50.8671875 C-3.16215595 56.8717007 -10.95217118 59.37455406 -19.5 59.625 C-29.27035241 59.221579 -36.35122564 56.03964077 -43.375 49.1875 C-50.95457982 39.87498205 -52.37844934 31.05328848 -51.375 19.1875 C-50.51366837 15.81068848 -49.22666799 13.12702293 -47.375 10.1875 C-46.9625 9.49140625 -46.55 8.7953125 -46.125 8.078125 C-41.64909732 1.31340845 -35.03322547 -2.98123136 -27.25 -5.1875 C-17.60207219 -6.74361739 -8.14396499 -5.85443521 0 0 Z " fill="#000000" transform="translate(198.375,254.8125)"/>
</svg>
