<?xml version="1.0" encoding="UTF-8"?>
<svg xmlns="http://www.w3.org/2000/svg" xmlns:xlink="http://www.w3.org/1999/xlink" width="200px" height="200px" viewBox="0 0 200 200" version="1.1">
<g id="surface1">
<path style=" stroke:none;fill-rule:nonzero;fill:rgb(21.568628%,20.392157%,20.784314%);fill-opacity:1;" d="M 152.363281 83.25 L 162.5625 83.25 L 170.9375 108 L 179.75 83.25 L 189.667969 83.25 L 176.886719 118.136719 L 174.582031 124.425781 C 173.730469 126.53125 172.925781 128.136719 172.167969 129.261719 C 171.40625 130.363281 170.519531 131.269531 169.53125 131.957031 C 168.542969 132.65625 167.324219 133.199219 165.863281 133.574219 C 160.394531 135.03125 156.6875 133.90625 153.574219 132.644531 L 155.71875 126.074219 C 158.488281 126.613281 161.636719 127.125 163.71875 124.574219 C 164.792969 123.261719 165.613281 121.582031 166.1875 119.550781 L 152.386719 83.238281 Z M 152.363281 83.25 "/>
<path style=" stroke:none;fill-rule:nonzero;fill:rgb(21.568628%,20.392157%,20.784314%);fill-opacity:1;" d="M 113.582031 119.488281 L 113.582031 73.75 L 123.15625 73.75 L 123.15625 87.53125 C 126.113281 84.167969 129.605469 82.480469 133.65625 82.480469 C 138.074219 82.480469 141.707031 84.074219 144.59375 87.269531 C 147.480469 90.46875 148.925781 95.074219 148.925781 101.0625 C 148.925781 107.25 147.457031 112.03125 144.519531 115.375 C 141.574219 118.71875 137.988281 120.394531 133.792969 120.394531 C 131.71875 120.394531 129.6875 119.863281 127.667969 118.800781 C 125.65625 117.730469 123.917969 116.199219 122.457031 114.167969 L 122.457031 119.488281 Z M 123.011719 100.667969 C 123.011719 104.425781 123.605469 107.21875 124.792969 109.011719 C 126.457031 111.574219 128.65625 112.855469 131.417969 112.855469 C 133.53125 112.855469 135.34375 111.949219 136.84375 110.136719 C 138.332031 108.324219 139.082031 105.457031 139.082031 101.5625 C 139.082031 97.40625 138.324219 94.417969 136.824219 92.574219 C 135.324219 90.730469 133.40625 89.8125 131.050781 89.8125 C 128.75 89.8125 126.832031 90.707031 125.3125 92.5 C 123.792969 94.292969 123.019531 97.019531 123.019531 100.667969 Z M 123.011719 100.667969 "/>
<path style=" stroke:none;fill-rule:nonzero;fill:rgb(21.568628%,20.392157%,20.784314%);fill-opacity:1;" d="M 95.667969 119.488281 L 86.09375 119.488281 L 86.09375 83.238281 L 94.957031 83.238281 L 94.957031 88.386719 C 96.480469 85.949219 97.855469 84.355469 99.082031 83.605469 C 100.300781 82.84375 101.6875 82.480469 103.238281 82.480469 C 105.425781 82.480469 107.53125 83.082031 109.5625 84.28125 L 106.59375 92.636719 C 104.980469 91.582031 103.480469 91.0625 102.09375 91.0625 C 100.738281 91.0625 99.605469 91.4375 98.667969 92.167969 C 97.738281 92.90625 97 94.238281 96.46875 96.167969 C 95.9375 98.105469 95.667969 102.144531 95.667969 108.300781 Z M 95.667969 119.488281 "/>
<path style=" stroke:none;fill-rule:nonzero;fill:rgb(21.568628%,20.392157%,20.784314%);fill-opacity:1;" d="M 68.875 108.042969 L 78.449219 109.644531 C 77.230469 113.144531 75.28125 115.8125 72.636719 117.65625 C 69.980469 119.480469 66.667969 120.40625 62.699219 120.40625 C 56.40625 120.40625 51.730469 118.34375 48.71875 114.230469 C 46.332031 110.925781 45.136719 106.761719 45.136719 101.71875 C 45.136719 95.707031 46.707031 91 49.832031 87.605469 C 52.96875 84.199219 56.9375 82.488281 61.730469 82.488281 C 67.105469 82.488281 71.355469 84.269531 74.46875 87.832031 C 77.574219 91.394531 79.0625 96.855469 78.925781 104.207031 L 54.96875 104.207031 C 55.042969 107.050781 55.800781 109.261719 57.28125 110.84375 C 58.75 112.425781 60.582031 113.21875 62.769531 113.21875 C 64.269531 113.21875 65.53125 112.8125 66.542969 112 C 67.5625 111.1875 68.332031 109.875 68.855469 108.050781 Z M 69.4375 98.332031 C 69.363281 95.550781 68.65625 93.4375 67.292969 91.988281 C 65.925781 90.53125 64.28125 89.8125 62.324219 89.8125 C 60.238281 89.8125 58.519531 90.582031 57.15625 92.105469 C 55.792969 93.625 55.136719 95.707031 55.15625 98.332031 Z M 69.4375 98.332031 "/>
<path style=" stroke:none;fill-rule:nonzero;fill:rgb(21.568628%,20.392157%,20.784314%);fill-opacity:1;" d="M 19.3125 119.488281 L 4.707031 83.238281 L 14.769531 83.238281 L 21.59375 101.738281 L 23.574219 107.917969 C 24.09375 106.34375 24.4375 105.3125 24.5625 104.8125 C 24.886719 103.792969 25.230469 102.761719 25.59375 101.738281 L 32.511719 83.238281 L 42.355469 83.238281 L 27.957031 119.488281 Z M 19.3125 119.488281 "/>
<path style=" stroke:none;fill-rule:nonzero;fill:rgb(100%,0%,3.529412%);fill-opacity:1;" d="M 186.574219 78.167969 C 190.011719 79.417969 193.6875 77.6875 194.90625 74.363281 C 196.113281 71.03125 194.394531 67.34375 190.957031 66.105469 C 187.519531 64.855469 183.832031 66.582031 182.625 69.90625 C 181.417969 73.238281 183.136719 76.925781 186.574219 78.167969 Z M 186.574219 78.167969 "/>
</g>
</svg>
